<svg xmlns="http://www.w3.org/2000/svg" viewBox="0 0 1600 900" fill="none">
  <defs>
    <linearGradient id="bg" x1="0" y1="0" x2="1" y2="1">
      <stop offset="0%" stop-color="#1c1917" />
      <stop offset="55%" stop-color="#292524" />
      <stop offset="100%" stop-color="#44403c" />
    </linearGradient>
    <linearGradient id="panel" x1="0" y1="0" x2="0" y2="1">
      <stop offset="0%" stop-color="#fafaf9" stop-opacity=".9" />
      <stop offset="100%" stop-color="#e7e5e4" stop-opacity=".55" />
    </linearGradient>
  </defs>

  <rect width="1600" height="900" fill="url(#bg)" />
  <circle cx="1210" cy="220" r="260" fill="#78716c" opacity=".22" />
  <circle cx="1410" cy="720" r="320" fill="#a8a29e" opacity=".14" />
  <circle cx="980" cy="560" r="180" fill="#d6d3d1" opacity=".1" />

  <g opacity=".92">
    <rect x="860" y="170" width="220" height="380" rx="36" fill="url(#panel)" />
    <rect x="1030" y="220" width="240" height="300" rx="42" fill="#f5f5f4" fill-opacity=".88" />
    <rect x="1200" y="150" width="220" height="360" rx="36" fill="#e7e5e4" fill-opacity=".82" />
    <rect x="950" y="540" width="380" height="44" rx="22" fill="#d6d3d1" fill-opacity=".42" />
    <rect x="1000" y="610" width="280" height="34" rx="17" fill="#fafaf9" fill-opacity=".32" />
  </g>

  <g opacity=".22" stroke="#fafaf9">
    <path d="M760 150c90 0 160 70 160 160" />
    <path d="M760 210c56 0 100 44 100 100" />
    <path d="M760 270c22 0 40 18 40 40" />
  </g>
</svg>
